<?xml version="1.0" standalone="no"?><!DOCTYPE svg PUBLIC "-//W3C//DTD SVG 1.1//EN" "http://www.w3.org/Graphics/SVG/1.1/DTD/svg11.dtd"><svg t="1508647736484" class="icon" style="" viewBox="0 0 1076 1024" version="1.1" xmlns="http://www.w3.org/2000/svg" p-id="1422" xmlns:xlink="http://www.w3.org/1999/xlink" width="134.5" height="128"><defs><style type="text/css"></style></defs><path d="M249.45664 1.95584c57.37472 0 103.87456 46.51008 103.87456 103.8848 0 57.36448-46.51008 103.87456-103.87456 103.87456s-103.8848-46.51008-103.8848-103.87456C145.57184 48.46592 192.08192 1.95584 249.45664 1.95584L249.45664 1.95584z" p-id="1423" fill="#e6e6e6"></path><path d="M98.12992 253.14304c52.97152 0 95.90784 42.92608 95.90784 95.8976 0 52.98176-42.93632 95.90784-95.90784 95.90784s-95.90784-42.92608-95.90784-95.90784C2.22208 296.06912 45.1584 253.14304 98.12992 253.14304L98.12992 253.14304z" p-id="1424" fill="#e6e6e6"></path><path d="M100.46464 513.1776c48.56832 0 87.94112 39.3728 87.94112 87.95136 0 48.55808-39.3728 87.93088-87.94112 87.93088s-87.94112-39.3728-87.94112-87.93088C12.51328 552.5504 51.88608 513.1776 100.46464 513.1776L100.46464 513.1776z" p-id="1425" fill="#e6e6e6"></path><path d="M209.8176 717.75232c44.16512 0 79.9744 35.79904 79.9744 79.98464 0 44.15488-35.80928 79.98464-79.9744 79.98464-44.17536 0-79.98464-35.81952-79.98464-79.98464C129.83296 753.55136 165.64224 717.75232 209.8176 717.75232L209.8176 717.75232z" p-id="1426" fill="#e6e6e6"></path><path d="M375.47008 843.29472c39.76192 0 72.01792 32.23552 72.01792 72.01792 0 39.77216-32.24576 72.00768-72.01792 72.00768-39.77216 0-72.01792-32.23552-72.01792-72.00768C303.45216 875.53024 335.68768 843.29472 375.47008 843.29472L375.47008 843.29472z" p-id="1427" fill="#e6e6e6"></path><path d="M556.4416 890.0608c35.36896 0 64.04096 28.68224 64.04096 64.0512s-28.672 64.0512-64.04096 64.0512c-35.36896 0-64.04096-28.68224-64.04096-64.0512S521.07264 890.0608 556.4416 890.0608L556.4416 890.0608z" p-id="1428" fill="#e6e6e6"></path><path d="M724.35712 871.56736c30.976 0 56.08448 25.10848 56.08448 56.08448 0 30.95552-25.09824 56.07424-56.08448 56.07424-30.95552 0-56.07424-25.10848-56.07424-56.07424C668.29312 896.67584 693.4016 871.56736 724.35712 871.56736L724.35712 871.56736z" p-id="1429" fill="#e6e6e6"></path><path d="M862.44352 804.47488c26.58304 0 48.11776 21.54496 48.11776 48.10752s-21.54496 48.11776-48.11776 48.11776c-26.56256 0-48.09728-21.54496-48.09728-48.11776S835.88096 804.47488 862.44352 804.47488L862.44352 804.47488z" p-id="1430" fill="#e6e6e6"></path><path d="M962.99008 706.36544c22.1696 0 40.1408 17.98144 40.1408 40.15104s-17.9712 40.15104-40.1408 40.15104-40.15104-17.98144-40.15104-40.15104S940.82048 706.36544 962.99008 706.36544L962.99008 706.36544z" p-id="1431" fill="#e6e6e6"></path><path d="M1024.256 592.31232c17.7664 0 32.18432 14.39744 32.18432 32.18432 0 17.7664-14.40768 32.17408-32.18432 32.17408-17.77664 0-32.18432-14.39744-32.18432-32.17408C992.08192 606.70976 1006.47936 592.31232 1024.256 592.31232L1024.256 592.31232z" p-id="1432" fill="#e6e6e6"></path><path d="M1048.46336 474.43968c13.37344 0 24.19712 10.84416 24.19712 24.20736s-10.83392 24.20736-24.19712 24.20736c-13.38368 0-24.2176-10.84416-24.2176-24.20736S1035.07968 474.43968 1048.46336 474.43968L1048.46336 474.43968z" p-id="1433" fill="#e6e6e6"></path></svg>