<?xml version="1.0" standalone="no"?><!DOCTYPE svg PUBLIC "-//W3C//DTD SVG 1.1//EN" "http://www.w3.org/Graphics/SVG/1.1/DTD/svg11.dtd"><svg t="1522112952229" class="icon" style="" viewBox="0 0 1024 1024" version="1.1" xmlns="http://www.w3.org/2000/svg" p-id="3646" xmlns:xlink="http://www.w3.org/1999/xlink" width="200" height="200"><defs><style type="text/css"></style></defs><path d="M742.29455 334.277347l-52.575897-52.575897c-10.06998-10.06998-10.06998-26.401948 0-36.471929l100.717803-100.717803c10.06998-10.06998 26.401948-10.06998 36.471929 0l52.575897 52.575897c10.06998 10.06998 10.06998 26.401948 0 36.471929l-100.717803 100.717803c-10.07398 10.07398-26.401948 10.07398-36.471929 0z" fill="#CEE8FA" p-id="3647"></path><path d="M760.528515 371.305275c-14.759971 0-28.635944-5.747989-39.075924-16.183969l-52.575897-52.575897c-10.43598-10.43598-16.185968-24.315953-16.185969-39.075924 0-14.761971 5.749989-28.641944 16.189969-39.081923l100.713803-100.713804c10.43998-10.43598 24.315953-16.183968 39.077924-16.183968 14.759971 0 28.635944 5.747989 39.075923 16.179968l52.575898 52.579898c10.43598 10.43398 16.185968 24.311953 16.185968 39.075923 0 14.759971-5.749989 28.637944-16.189968 39.077924l-100.713804 100.713803c-10.43598 10.43998-24.313953 16.187968-39.077923 16.187969z m-47.365908-107.83779l47.365908 47.367908 95.505813-95.509814-47.361907-47.367907-95.509814 95.509813z" fill="#2D527C" p-id="3648"></path><path d="M197.087615 879.484282l-52.575897-52.575897c-10.06998-10.06998-10.06998-26.401948 0-36.471929l100.717803-100.717803c10.06998-10.06998 26.401948-10.06998 36.471929 0l52.575897 52.575897c10.06998 10.06998 10.06998 26.401948 0 36.471929l-100.717803 100.717803c-10.06998 10.06998-26.397948 10.06998-36.471929 0z" fill="#CEE8FA" p-id="3649"></path><path d="M215.325579 916.51021c-14.759971 0-28.635944-5.747989-39.075923-16.183968l-52.575898-52.579898c-10.43598-10.43398-16.185968-24.311953-16.185968-39.075923 0-14.759971 5.749989-28.637944 16.189968-39.077924l100.713804-100.713803c10.43598-10.43598 24.315953-16.185968 39.077923-16.185969 14.759971 0 28.635944 5.747989 39.075924 16.183969l52.575897 52.575897c10.43598 10.43598 16.185968 24.315953 16.185969 39.077924 0 14.759971-5.749989 28.637944-16.189969 39.077923l-100.713803 100.713804c-10.44198 10.43798-24.317953 16.187968-39.077924 16.187968z m-47.365907-107.839789l47.361907 47.367907 95.509814-95.509813-47.365908-47.367908-95.505813 95.509814z" fill="#2D527C" p-id="3650"></path><path d="M689.716653 742.29455l52.575897-52.575897c10.06998-10.06998 26.401948-10.06998 36.471929 0l100.717803 100.717803c10.06998 10.06998 10.06998 26.401948 0 36.471929l-52.575897 52.575897c-10.06998 10.06998-26.401948 10.06998-36.471929 0l-100.717803-100.717803c-10.06998-10.07398-10.06998-26.401948 0-36.471929z" fill="#CEE8FA" p-id="3651"></path><path d="M808.672421 916.51021c-14.763971 0-28.637944-5.749989-39.077924-16.185968l-100.717803-100.717804c-10.43598-10.43998-16.185968-24.315953-16.185969-39.077923s5.749989-28.641944 16.189969-39.081924l52.569897-52.569897c10.44198-10.43998 24.317953-16.185968 39.077924-16.185969 14.763971 0 28.641944 5.749989 39.077923 16.185969l100.717804 100.713803c10.43598 10.43998 16.185968 24.315953 16.185968 39.077924s-5.749989 28.641944-16.189968 39.081923l-52.569898 52.569898c-10.44198 10.44398-24.317953 16.189968-39.077923 16.189968z m-95.509814-155.981695l95.509814 95.509813 47.361907-47.367907-95.505813-95.509814-47.365908 47.367908z" fill="#2D527C" p-id="3652"></path><path d="M144.513718 197.087615l52.575897-52.575897c10.06998-10.06998 26.401948-10.06998 36.471929 0l100.717803 100.717803c10.06998 10.06998 10.06998 26.401948 0 36.471929l-52.575897 52.575897c-10.06998 10.06998-26.401948 10.06998-36.471929 0l-100.717803-100.713803c-10.06998-10.07398-10.06998-26.401948 0-36.475929z" fill="#CEE8FA" p-id="3653"></path><path d="M263.469485 371.305275c-14.761971 0-28.641944-5.749989-39.077923-16.185969l-100.717804-100.713803c-10.43598-10.43998-16.185968-24.315953-16.185968-39.077924 0-14.761971 5.749989-28.641944 16.189968-39.081923l52.569898-52.569898c10.44198-10.43998 24.317953-16.185968 39.077923-16.185968 14.761971 0 28.637944 5.747989 39.077924 16.183968l100.717803 100.717804c10.43598 10.43998 16.185968 24.315953 16.185969 39.077923 0 14.759971-5.749989 28.637944-16.189969 39.077924l-52.569897 52.569897c-10.44598 10.43998-24.321952 16.187968-39.077924 16.187969z m-95.509813-155.979696l95.505813 95.509814 47.365908-47.365908-95.505814-95.511813-47.365907 47.367907zM894.768252 604.436819h-68.467866c-30.47194 0-55.263892-24.791952-55.263892-55.261892v-74.353854c0-30.47194 24.791952-55.261892 55.263892-55.261892h142.433722c30.47194 0 55.263892 24.791952 55.263892 55.261892v74.353854c0 16.277968-13.197974 29.471942-29.471942 29.471943s-29.471942-13.195974-29.471943-29.471943v-70.669862h-135.071736v66.98787h64.787873c16.273968 0 29.471942 13.195974 29.471943 29.471942 0 16.279968-13.197974 29.471942-29.473943 29.471942zM197.697614 604.436819H55.263892C24.791952 604.436819 0 579.644868 0 549.176927v-74.353854c0-16.277968 13.197974-29.471942 29.471942-29.471943s29.471942 13.195974 29.471943 29.471943v70.669862h135.071736v-66.98787H128.533749c-16.273968 0-29.471942-13.195974-29.471942-29.471942 0-16.277968 13.197974-29.471942 29.471942-29.471942h69.163865c30.47194 0 55.263892 24.791952 55.263892 55.261892v74.353854c0 30.46794-24.791952 55.259892-55.263892 55.259892zM549.176927 1023.998H474.819073c-16.273968 0-29.471942-13.193974-29.471943-29.471942s13.197974-29.471942 29.471943-29.471943h70.673862v-135.071736h-66.98787v66.177871c0 16.277968-13.197974 29.471942-29.471942 29.471942s-29.471942-13.193974-29.471942-29.471942V826.298386c0-30.47194 24.789952-55.261892 55.261892-55.261892h74.357854c30.47194 0 55.261892 24.791952 55.261892 55.261892v142.435722C604.436819 999.206048 579.648868 1023.998 549.176927 1023.998zM549.176927 252.961506H474.819073c-30.47194 0-55.261892-24.791952-55.261892-55.261892V55.259892C419.557181 24.789952 444.347132 0 474.819073 0h74.357854c16.273968 0 29.471942 13.195974 29.471943 29.471942s-13.197974 29.471942-29.471943 29.471943h-70.673862v135.071736h66.98787V129.589747c0-16.277968 13.197974-29.471942 29.471942-29.471943s29.471942 13.195974 29.471942 29.471943v68.107867c0.002 30.47194-24.785952 55.263892-55.257892 55.263892zM392.091234 541.470942h-37.235927c-16.273968 0-29.471942-13.195974-29.471943-29.471942 0-16.277968 13.197974-29.471942 29.471943-29.471942h37.235927c16.273968 0 29.471942 13.195974 29.471943 29.471942 0.002 16.277968-13.193974 29.471942-29.471943 29.471942zM530.616964 541.470942H493.379036c-16.273968 0-29.471942-13.195974-29.471942-29.471942 0-16.277968 13.197974-29.471942 29.471942-29.471942h37.237928c16.273968 0 29.471942 13.195974 29.471942 29.471942 0 16.277968-13.193974 29.471942-29.471942 29.471942zM669.138693 541.470942h-37.235927c-16.273968 0-29.471942-13.195974-29.471943-29.471942 0-16.277968 13.197974-29.471942 29.471943-29.471942h37.235927c16.273968 0 29.471942 13.195974 29.471943 29.471942 0.002 16.277968-13.193974 29.471942-29.471943 29.471942z" fill="#2D527C" p-id="3654"></path></svg>